<svg width="212" height="24" viewBox="0 0 212 24" fill="none" xmlns="http://www.w3.org/2000/svg">
<mask id="mask0" mask-type="alpha" maskUnits="userSpaceOnUse" x="0" y="2" width="89" height="20">
<path fill-rule="evenodd" clip-rule="evenodd" d="M71.7756 7.99375C71.0896 6.80159 69.8111 6 68.3471 6C66.8845 6 65.607 6.80005 64.9206 7.9903C64.58 8.58083 64.4762 9.24786 64.4345 10L64.3849 11V18L64.3354 19.0004C64.2707 20.6605 63.0677 21.8402 61.4133 21.95L60.4228 22V2C61.4133 2 63.1385 2.50564 63.9091 3.37131C65.1753 2.50564 66.7027 2 68.3471 2C70.7138 2 72.8383 3.04751 74.2903 4.70835C75.7423 3.04751 77.8668 2 80.2335 2C84.61 2 88.1578 5.58172 88.1578 10V11.009V22L87.1682 21.95C85.5315 21.8542 84.348 20.644 84.2452 18.999L84.1957 18V10.9989L84.1462 10C84.1069 9.26721 84.0026 8.58767 83.6651 7.99912C82.9799 6.804 81.6997 6 80.2335 6C78.7726 6 77.4963 6.79827 76.8093 7.98632C76.4673 8.57775 76.3596 9.25832 76.3209 10L76.2714 11V22L75.2818 21.95C73.6475 21.8455 72.4567 20.6344 72.3588 18.999L72.3092 18V11L72.2597 10C72.2214 9.24898 72.1149 8.58351 71.7756 7.99375ZM3.96215 21.95C2.31704 21.8407 1.13778 20.6476 1.04006 18.9991L0.990538 18L12.877 6.00002H3.96215L2.97041 5.95002C1.35023 5.85558 0.177866 4.62597 0.0495261 2.99908L0 2.00003L14.8581 2.00093L15.8485 2.05002C17.4894 2.13756 18.6922 3.3417 18.7707 5.00126L18.8202 6.00002L6.93377 18H15.8486L16.8391 18.05C18.4738 18.1532 19.6287 19.3545 19.7612 21.001L19.8108 22H4.95269L3.96215 21.95ZM56.5311 4.92894C60.3994 8.83418 60.3994 15.1658 56.5311 19.0711C52.6628 22.9763 46.3911 22.9763 42.5228 19.0711C38.6545 15.1658 38.6545 8.83418 42.5228 4.92894C44.4554 2.97793 46.9878 2.00162 49.5207 2C52.0662 2.00162 54.5986 2.97793 56.5311 4.92894ZM53.7293 7.75761C51.4083 5.41445 47.6453 5.41445 45.3243 7.75761C43.0033 10.1008 43.0033 13.8997 45.3243 16.2429C47.6453 18.586 51.4083 18.586 53.7293 16.2429C56.0503 13.8997 56.0503 10.1008 53.7293 7.75761ZM28.7319 2C31.2648 2.00162 33.7972 2.97793 35.7297 4.92894C39.598 8.83418 39.598 15.1658 35.7297 19.0711C31.8614 22.9763 25.5897 22.9763 21.7214 19.0711C17.8531 15.1658 17.8531 8.83418 21.7214 4.92894C23.654 2.97793 26.1864 2.00162 28.7193 2H28.7319ZM32.9281 7.75761C30.6071 5.41445 26.8441 5.41445 24.5231 7.75761C22.2021 10.1008 22.2021 13.8997 24.5231 16.2429C26.8441 18.586 30.6071 18.586 32.9281 16.2429C35.2491 13.8997 35.2491 10.1008 32.9281 7.75761Z" fill="white"/>
</mask>
<g mask="url(#mask0)">
<path fill-rule="evenodd" clip-rule="evenodd" d="M-0.789383 0.947342H89.7369V23.5789H-0.789383V0.947342Z" fill="#2D8CFF"/>
</g>
<line x1="104.25" y1="2" x2="104.25" y2="22" stroke="#747487" stroke-width="0.5"/>
<path d="M134.25 12.84C134.25 13.9133 134.08 14.89 133.74 15.77C133.4 16.65 132.92 17.4033 132.3 18.03C131.68 18.6567 130.933 19.1433 130.06 19.49C129.193 19.83 128.233 20 127.18 20H121.83V5.67H127.18C128.233 5.67 129.193 5.84333 130.06 6.19C130.933 6.53 131.68 7.01667 132.3 7.65C132.92 8.27667 133.4 9.03 133.74 9.91C134.08 10.79 134.25 11.7667 134.25 12.84ZM132.26 12.84C132.26 11.96 132.14 11.1733 131.9 10.48C131.66 9.78667 131.32 9.2 130.88 8.72C130.44 8.24 129.907 7.87333 129.28 7.62C128.653 7.36667 127.953 7.24 127.18 7.24H123.77V18.43H127.18C127.953 18.43 128.653 18.3033 129.28 18.05C129.907 17.7967 130.44 17.4333 130.88 16.96C131.32 16.48 131.66 15.8933 131.9 15.2C132.14 14.5067 132.26 13.72 132.26 12.84ZM143.268 13.83C143.268 13.4167 143.208 13.04 143.088 12.7C142.975 12.3533 142.805 12.0567 142.578 11.81C142.358 11.5567 142.088 11.3633 141.768 11.23C141.448 11.09 141.085 11.02 140.678 11.02C139.825 11.02 139.148 11.27 138.648 11.77C138.155 12.2633 137.848 12.95 137.728 13.83H143.268ZM144.708 18.58C144.488 18.8467 144.225 19.08 143.918 19.28C143.611 19.4733 143.281 19.6333 142.928 19.76C142.581 19.8867 142.221 19.98 141.848 20.04C141.475 20.1067 141.105 20.14 140.738 20.14C140.038 20.14 139.391 20.0233 138.798 19.79C138.211 19.55 137.701 19.2033 137.268 18.75C136.841 18.29 136.508 17.7233 136.268 17.05C136.028 16.3767 135.908 15.6033 135.908 14.73C135.908 14.0233 136.015 13.3633 136.228 12.75C136.448 12.1367 136.761 11.6067 137.168 11.16C137.575 10.7067 138.071 10.3533 138.658 10.1C139.245 9.84 139.905 9.71 140.638 9.71C141.245 9.71 141.805 9.81333 142.318 10.02C142.838 10.22 143.285 10.5133 143.658 10.9C144.038 11.28 144.335 11.7533 144.548 12.32C144.761 12.88 144.868 13.52 144.868 14.24C144.868 14.52 144.838 14.7067 144.778 14.8C144.718 14.8933 144.605 14.94 144.438 14.94H137.668C137.688 15.58 137.775 16.1367 137.928 16.61C138.088 17.0833 138.308 17.48 138.588 17.8C138.868 18.1133 139.201 18.35 139.588 18.51C139.975 18.6633 140.408 18.74 140.888 18.74C141.335 18.74 141.718 18.69 142.038 18.59C142.365 18.4833 142.645 18.37 142.878 18.25C143.111 18.13 143.305 18.02 143.458 17.92C143.618 17.8133 143.755 17.76 143.868 17.76C144.015 17.76 144.128 17.8167 144.208 17.93L144.708 18.58ZM155.52 9.87L151.39 20H149.79L145.66 9.87H147.11C147.256 9.87 147.376 9.90667 147.47 9.98C147.563 10.0533 147.626 10.14 147.66 10.24L150.23 16.76C150.31 17.0067 150.38 17.2467 150.44 17.48C150.5 17.7133 150.556 17.9467 150.61 18.18C150.663 17.9467 150.72 17.7133 150.78 17.48C150.84 17.2467 150.913 17.0067 151 16.76L153.6 10.24C153.64 10.1333 153.706 10.0467 153.8 9.98C153.893 9.90667 154.003 9.87 154.13 9.87H155.52ZM163.659 13.83C163.659 13.4167 163.599 13.04 163.479 12.7C163.365 12.3533 163.195 12.0567 162.969 11.81C162.749 11.5567 162.479 11.3633 162.159 11.23C161.839 11.09 161.475 11.02 161.069 11.02C160.215 11.02 159.539 11.27 159.039 11.77C158.545 12.2633 158.239 12.95 158.119 13.83H163.659ZM165.099 18.58C164.879 18.8467 164.615 19.08 164.309 19.28C164.002 19.4733 163.672 19.6333 163.319 19.76C162.972 19.8867 162.612 19.98 162.239 20.04C161.865 20.1067 161.495 20.14 161.129 20.14C160.429 20.14 159.782 20.0233 159.189 19.79C158.602 19.55 158.092 19.2033 157.659 18.75C157.232 18.29 156.899 17.7233 156.659 17.05C156.419 16.3767 156.299 15.6033 156.299 14.73C156.299 14.0233 156.405 13.3633 156.619 12.75C156.839 12.1367 157.152 11.6067 157.559 11.16C157.965 10.7067 158.462 10.3533 159.049 10.1C159.635 9.84 160.295 9.71 161.029 9.71C161.635 9.71 162.195 9.81333 162.709 10.02C163.229 10.22 163.675 10.5133 164.049 10.9C164.429 11.28 164.725 11.7533 164.939 12.32C165.152 12.88 165.259 13.52 165.259 14.24C165.259 14.52 165.229 14.7067 165.169 14.8C165.109 14.8933 164.995 14.94 164.829 14.94H158.059C158.079 15.58 158.165 16.1367 158.319 16.61C158.479 17.0833 158.699 17.48 158.979 17.8C159.259 18.1133 159.592 18.35 159.979 18.51C160.365 18.6633 160.799 18.74 161.279 18.74C161.725 18.74 162.109 18.69 162.429 18.59C162.755 18.4833 163.035 18.37 163.269 18.25C163.502 18.13 163.695 18.02 163.849 17.92C164.009 17.8133 164.145 17.76 164.259 17.76C164.405 17.76 164.519 17.8167 164.599 17.93L165.099 18.58ZM169.285 5.27V20H167.505V5.27H169.285ZM176.442 9.71C177.182 9.71 177.848 9.83333 178.442 10.08C179.035 10.3267 179.542 10.6767 179.962 11.13C180.382 11.5833 180.702 12.1333 180.922 12.78C181.148 13.42 181.262 14.1367 181.262 14.93C181.262 15.73 181.148 16.45 180.922 17.09C180.702 17.73 180.382 18.2767 179.962 18.73C179.542 19.1833 179.035 19.5333 178.442 19.78C177.848 20.02 177.182 20.14 176.442 20.14C175.695 20.14 175.022 20.02 174.422 19.78C173.828 19.5333 173.322 19.1833 172.902 18.73C172.482 18.2767 172.158 17.73 171.932 17.09C171.712 16.45 171.602 15.73 171.602 14.93C171.602 14.1367 171.712 13.42 171.932 12.78C172.158 12.1333 172.482 11.5833 172.902 11.13C173.322 10.6767 173.828 10.3267 174.422 10.08C175.022 9.83333 175.695 9.71 176.442 9.71ZM176.442 18.75C177.442 18.75 178.188 18.4167 178.682 17.75C179.175 17.0767 179.422 16.14 179.422 14.94C179.422 13.7333 179.175 12.7933 178.682 12.12C178.188 11.4467 177.442 11.11 176.442 11.11C175.935 11.11 175.492 11.1967 175.112 11.37C174.738 11.5433 174.425 11.7933 174.172 12.12C173.925 12.4467 173.738 12.85 173.612 13.33C173.492 13.8033 173.432 14.34 173.432 14.94C173.432 16.14 173.678 17.0767 174.172 17.75C174.672 18.4167 175.428 18.75 176.442 18.75ZM185.309 17.56C185.636 18 185.993 18.31 186.379 18.49C186.766 18.67 187.199 18.76 187.679 18.76C188.626 18.76 189.353 18.4233 189.859 17.75C190.366 17.0767 190.619 16.1167 190.619 14.87C190.619 14.21 190.559 13.6433 190.439 13.17C190.326 12.6967 190.159 12.31 189.939 12.01C189.719 11.7033 189.449 11.48 189.129 11.34C188.809 11.2 188.446 11.13 188.039 11.13C187.459 11.13 186.949 11.2633 186.509 11.53C186.076 11.7967 185.676 12.1733 185.309 12.66V17.56ZM185.219 11.44C185.646 10.9133 186.139 10.49 186.699 10.17C187.259 9.85 187.899 9.69 188.619 9.69C189.206 9.69 189.736 9.80333 190.209 10.03C190.683 10.25 191.086 10.58 191.419 11.02C191.753 11.4533 192.009 11.9933 192.189 12.64C192.369 13.2867 192.459 14.03 192.459 14.87C192.459 15.6167 192.359 16.3133 192.159 16.96C191.959 17.6 191.669 18.1567 191.289 18.63C190.916 19.0967 190.456 19.4667 189.909 19.74C189.369 20.0067 188.759 20.14 188.079 20.14C187.459 20.14 186.926 20.0367 186.479 19.83C186.039 19.6167 185.649 19.3233 185.309 18.95V23.43H183.519V9.87H184.589C184.843 9.87 184.999 9.99333 185.059 10.24L185.219 11.44ZM201.51 13.83C201.51 13.4167 201.45 13.04 201.33 12.7C201.217 12.3533 201.047 12.0567 200.82 11.81C200.6 11.5567 200.33 11.3633 200.01 11.23C199.69 11.09 199.327 11.02 198.92 11.02C198.067 11.02 197.39 11.27 196.89 11.77C196.397 12.2633 196.09 12.95 195.97 13.83H201.51ZM202.95 18.58C202.73 18.8467 202.467 19.08 202.16 19.28C201.854 19.4733 201.524 19.6333 201.17 19.76C200.824 19.8867 200.464 19.98 200.09 20.04C199.717 20.1067 199.347 20.14 198.98 20.14C198.28 20.14 197.634 20.0233 197.04 19.79C196.454 19.55 195.944 19.2033 195.51 18.75C195.084 18.29 194.75 17.7233 194.51 17.05C194.27 16.3767 194.15 15.6033 194.15 14.73C194.15 14.0233 194.257 13.3633 194.47 12.75C194.69 12.1367 195.004 11.6067 195.41 11.16C195.817 10.7067 196.314 10.3533 196.9 10.1C197.487 9.84 198.147 9.71 198.88 9.71C199.487 9.71 200.047 9.81333 200.56 10.02C201.08 10.22 201.527 10.5133 201.9 10.9C202.28 11.28 202.577 11.7533 202.79 12.32C203.004 12.88 203.11 13.52 203.11 14.24C203.11 14.52 203.08 14.7067 203.02 14.8C202.96 14.8933 202.847 14.94 202.68 14.94H195.91C195.93 15.58 196.017 16.1367 196.17 16.61C196.33 17.0833 196.55 17.48 196.83 17.8C197.11 18.1133 197.444 18.35 197.83 18.51C198.217 18.6633 198.65 18.74 199.13 18.74C199.577 18.74 199.96 18.69 200.28 18.59C200.607 18.4833 200.887 18.37 201.12 18.25C201.354 18.13 201.547 18.02 201.7 17.92C201.86 17.8133 201.997 17.76 202.11 17.76C202.257 17.76 202.37 17.8167 202.45 17.93L202.95 18.58ZM206.987 11.9C207.307 11.2067 207.7 10.6667 208.167 10.28C208.633 9.88667 209.203 9.69 209.877 9.69C210.09 9.69 210.293 9.71333 210.487 9.76C210.687 9.80667 210.863 9.88 211.017 9.98L210.887 11.31C210.847 11.4767 210.747 11.56 210.587 11.56C210.493 11.56 210.357 11.54 210.177 11.5C209.997 11.46 209.793 11.44 209.567 11.44C209.247 11.44 208.96 11.4867 208.707 11.58C208.46 11.6733 208.237 11.8133 208.037 12C207.843 12.18 207.667 12.4067 207.507 12.68C207.353 12.9467 207.213 13.2533 207.087 13.6V20H205.297V9.87H206.317C206.51 9.87 206.643 9.90667 206.717 9.98C206.79 10.0533 206.84 10.18 206.867 10.36L206.987 11.9Z" fill="#747487"/>
</svg>
